<svg width="96" height="22" viewBox="0 0 96 22" fill="none" xmlns="http://www.w3.org/2000/svg">
<path d="M6.20237 0.319312L10.1652 10.019H10.3725L14.3354 0.319312H19.7957V17H15.5104V7.18512H15.3721L11.5706 16.8848H8.94408L5.16559 7.116H5.02735V17H0.741979V0.319312H6.20237ZM21.5007 13.5441C21.5007 12.2462 21.9192 11.2785 22.7563 10.6411C23.6011 10.0036 24.7185 9.64268 26.1086 9.5582L28.1015 9.47756L29.0346 9.443V8.42926C29.027 8.09135 28.8926 7.82639 28.6314 7.63439C28.378 7.4424 28.0363 7.3464 27.6062 7.3464C27.1531 7.3464 26.7883 7.44624 26.5118 7.64591C26.2353 7.83791 26.0702 8.12974 26.0164 8.52142H21.9845C22.0383 7.73807 22.284 7.03152 22.7218 6.40177C23.1672 5.76434 23.8085 5.26131 24.6456 4.89268C25.4827 4.51636 26.4926 4.32821 27.6753 4.32821C28.8119 4.32821 29.8103 4.50484 30.6705 4.85812C31.5383 5.20371 32.2064 5.69138 32.6749 6.32113C33.1511 6.9432 33.3891 7.65359 33.3891 8.4523V17H29.3111V15.249H29.219C28.8503 15.9171 28.3626 16.4086 27.7559 16.7235C27.1569 17.0384 26.4312 17.1997 25.5787 17.2074C24.3346 17.1997 23.3439 16.8886 22.6066 16.2743C21.8693 15.6599 21.5007 14.7498 21.5007 13.5441ZM25.6017 13.2906C25.6094 13.6593 25.74 13.9396 25.9934 14.1316C26.2468 14.3236 26.5848 14.4196 27.0072 14.4196C27.3758 14.4196 27.7175 14.3428 28.0324 14.1892C28.3473 14.0356 28.5969 13.8205 28.7812 13.5441C28.9655 13.2599 29.0577 12.9297 29.0577 12.5534V11.8852C28.1438 11.9082 27.4219 11.9466 26.892 12.0004C26.5003 12.0542 26.1892 12.2001 25.9588 12.4382C25.7285 12.6686 25.6094 12.9527 25.6017 13.2906ZM35.6009 4.48948H39.8172V6.83953H39.9554C40.1781 6.00242 40.5314 5.37651 41.0152 4.9618C41.5068 4.5394 42.0943 4.32821 42.7778 4.32821C43.1464 4.32821 43.5342 4.37429 43.9413 4.46644V8.2219C43.7416 8.15278 43.4805 8.09903 43.1579 8.06063C42.8431 8.01455 42.5589 7.99151 42.3055 7.99151C41.8523 7.99151 41.4453 8.09519 41.0844 8.30254C40.7311 8.50222 40.4546 8.78637 40.2549 9.15501C40.0553 9.51596 39.9554 9.93452 39.9554 10.4107V17H35.6009V4.48948ZM53.3414 7.64591H51.1527V12.9911C51.1527 13.2983 51.2333 13.5172 51.3946 13.6477C51.5636 13.7783 51.8285 13.8436 52.1895 13.8436C52.4967 13.8436 52.9344 13.8205 53.5027 13.7745V17.023C53.0189 17.1229 52.3277 17.1766 51.4292 17.1843C49.8855 17.1766 48.722 16.8694 47.9386 16.2627C47.163 15.656 46.7828 14.7114 46.7982 13.4289V7.64591H45.1854V4.48948H46.7982V1.49433H51.1527V4.48948H53.3414V7.64591Z" fill="#4796EF"/>
<path d="M55.438 0.319312H62.5343C63.763 0.319312 64.8421 0.565068 65.7713 1.05658C66.7083 1.54041 67.4302 2.22392 67.937 3.10711C68.4516 3.99029 68.7089 5.01172 68.7089 6.17138C68.7089 7.3464 68.4478 8.3755 67.9255 9.25869C67.4033 10.1342 66.666 10.8062 65.7137 11.2747C64.7614 11.7431 63.6555 11.9774 62.396 11.9774H59.8156V17H55.438V0.319312ZM61.5205 8.5675C62.3423 8.55982 62.9835 8.34478 63.4443 7.92239C63.9051 7.49232 64.1317 6.90864 64.124 6.17138C64.1317 5.44179 63.9051 4.86964 63.4443 4.45492C62.9835 4.04021 62.3423 3.82901 61.5205 3.82134H59.8156V8.5675H61.5205ZM69.354 13.5441C69.354 12.2462 69.7725 11.2785 70.6096 10.6411C71.4544 10.0036 72.5718 9.64268 73.9619 9.5582L75.9548 9.47756L76.8879 9.443V8.42926C76.8803 8.09135 76.7459 7.82639 76.4847 7.63439C76.2313 7.4424 75.8895 7.3464 75.4595 7.3464C75.0064 7.3464 74.6416 7.44624 74.3651 7.64591C74.0886 7.83791 73.9235 8.12974 73.8697 8.52142H69.8378C69.8916 7.73807 70.1373 7.03152 70.5751 6.40177C71.0205 5.76434 71.6618 5.26131 72.4989 4.89268C73.336 4.51636 74.3459 4.32821 75.5286 4.32821C76.6652 4.32821 77.6636 4.50484 78.5237 4.85812C79.3916 5.20371 80.0597 5.69138 80.5282 6.32113C81.0043 6.9432 81.2424 7.65359 81.2424 8.4523V17H77.1644V15.249H77.0722C76.7036 15.9171 76.2159 16.4086 75.6092 16.7235C75.0102 17.0384 74.2845 17.1997 73.432 17.2074C72.1878 17.1997 71.1971 16.8886 70.4599 16.2743C69.7226 15.6599 69.354 14.7498 69.354 13.5441ZM73.455 13.2906C73.4627 13.6593 73.5933 13.9396 73.8467 14.1316C74.1001 14.3236 74.4381 14.4196 74.8604 14.4196C75.2291 14.4196 75.5708 14.3428 75.8857 14.1892C76.2006 14.0356 76.4502 13.8205 76.6345 13.5441C76.8188 13.2599 76.911 12.9297 76.911 12.5534V11.8852C75.9971 11.9082 75.2752 11.9466 74.7452 12.0004C74.3536 12.0542 74.0425 12.2001 73.8121 12.4382C73.5817 12.6686 73.4627 12.9527 73.455 13.2906ZM85.4817 21.7001C84.4373 21.6847 83.723 21.6617 83.339 21.631V18.3824C83.7307 18.4131 84.276 18.4285 84.9748 18.4285C85.3358 18.4285 85.6161 18.3862 85.8158 18.3017C86.0231 18.2173 86.1806 18.0368 86.2881 17.7603L86.3803 17.5299L81.9797 4.48948H86.5185L88.6151 13.2215H88.7533L90.896 4.48948H95.4579L90.8499 18.0829C90.4813 19.2118 89.8708 20.095 89.0183 20.7324C88.1735 21.3698 86.9946 21.6924 85.4817 21.7001Z" fill="#FF9B19"/>
</svg>
