<svg width="14" height="14" viewBox="0 0 14 14" fill="none" xmlns="http://www.w3.org/2000/svg">
<g clip-path="url(#clip0_439_19245)">
<path fill-rule="evenodd" clip-rule="evenodd" d="M13.8543 3.49569C14.0496 3.69095 14.0496 4.00753 13.8543 4.2028L7.70893 10.3482C7.61855 10.4427 7.51015 10.5181 7.3901 10.5701C7.2672 10.6233 7.13469 10.6508 7.00076 10.6508C6.86683 10.6508 6.73433 10.6233 6.61143 10.5701C6.49138 10.5181 6.38297 10.4427 6.29259 10.3482L0.147209 4.2028C-0.0480528 4.00753 -0.0480528 3.69095 0.147209 3.49569C0.342472 3.30043 0.659054 3.30043 0.854317 3.49569L7.00076 9.64214L13.1472 3.49569C13.3425 3.30043 13.6591 3.30043 13.8543 3.49569Z" fill="#A2A2A2"/>
</g>
<defs>
<clipPath id="clip0_439_19245">
<rect width="14" height="14" fill="white"/>
</clipPath>
</defs>
</svg>
