<svg width="14" height="14" viewBox="0 0 14 14" fill="none" xmlns="http://www.w3.org/2000/svg">
<g clip-path="url(#clip0_439_19241)">
<path fill-rule="evenodd" clip-rule="evenodd" d="M5.92 1C3.20276 1 1 3.20276 1 5.92C1 8.63724 3.20276 10.84 5.92 10.84C8.63724 10.84 10.84 8.63724 10.84 5.92C10.84 3.20276 8.63724 1 5.92 1ZM0 5.92C0 2.65047 2.65047 0 5.92 0C9.18953 0 11.84 2.65047 11.84 5.92C11.84 9.18953 9.18953 11.84 5.92 11.84C2.65047 11.84 0 9.18953 0 5.92Z" fill="#A4A4A4"/>
<path fill-rule="evenodd" clip-rule="evenodd" d="M9.39645 9.39645C9.59171 9.20118 9.90829 9.20118 10.1036 9.39645L13.8536 13.1464C14.0488 13.3417 14.0488 13.6583 13.8536 13.8536C13.6583 14.0488 13.3417 14.0488 13.1464 13.8536L9.39645 10.1036C9.20118 9.90829 9.20118 9.59171 9.39645 9.39645Z" fill="#A4A4A4"/>
</g>
<defs>
<clipPath id="clip0_439_19241">
<rect width="14" height="14" fill="white"/>
</clipPath>
</defs>
</svg>
