<svg width="14" height="14" viewBox="0 0 14 14" fill="none" xmlns="http://www.w3.org/2000/svg">
<g clip-path="url(#clip0_70_2)">
<path d="M11 9L13 8.5L13.5 10.5" stroke="white" stroke-linecap="round" stroke-linejoin="round"/>
<path d="M13 8.5C12.5558 9.75861 11.749 10.8576 10.6813 11.6584C9.61353 12.4592 8.33262 12.926 6.99999 13C5.7681 13.0002 4.566 12.6213 3.55697 11.9146C2.54794 11.2079 1.78088 10.2078 1.35999 9.05" stroke="white" stroke-linecap="round" stroke-linejoin="round"/>
<path d="M3 5L1 5.5L0.5 3.5" stroke="white" stroke-linecap="round" stroke-linejoin="round"/>
<path d="M1 5.5C1.84 3.2 4.42 1 7 1C8.23789 1.00348 9.4444 1.38976 10.4541 2.10588C11.4639 2.822 12.2274 3.8329 12.64 5" stroke="white" stroke-linecap="round" stroke-linejoin="round"/>
</g>
<defs>
<clipPath id="clip0_70_2">
<rect width="14" height="14" fill="white"/>
</clipPath>
</defs>
</svg>
