<svg width="14" height="14" viewBox="0 0 14 14" fill="none" xmlns="http://www.w3.org/2000/svg">
<g clip-path="url(#clip0_450_19270)">
<path fill-rule="evenodd" clip-rule="evenodd" d="M10.5051 13.8536C10.3098 14.0488 9.99323 14.0488 9.79797 13.8536L3.65259 7.70817C3.5581 7.61779 3.48263 7.50938 3.43066 7.38933C3.37745 7.26643 3.35 7.13393 3.35 7C3.35 6.86607 3.37745 6.73357 3.43066 6.61066C3.48263 6.49061 3.5581 6.38221 3.65259 6.29183L9.79797 0.146446C9.99323 -0.0488158 10.3098 -0.0488158 10.5051 0.146446C10.7003 0.341709 10.7003 0.658291 10.5051 0.853554L4.35863 7L10.5051 13.1464C10.7003 13.3417 10.7003 13.6583 10.5051 13.8536Z" fill="#000001"/>
</g>
<defs>
<clipPath id="clip0_450_19270">
<rect width="14" height="14" fill="white"/>
</clipPath>
</defs>
</svg>
