<svg width="14" height="14" viewBox="0 0 14 14" fill="none" xmlns="http://www.w3.org/2000/svg">
<g clip-path="url(#clip0_450_19268)">
<path fill-rule="evenodd" clip-rule="evenodd" d="M3.49645 0.146447C3.69171 -0.0488155 4.0083 -0.0488155 4.20356 0.146447L10.3489 6.29183C10.4434 6.38221 10.5189 6.49061 10.5709 6.61066C10.6241 6.73357 10.6515 6.86607 10.6515 7C10.6515 7.13393 10.6241 7.26643 10.5709 7.38934C10.5189 7.50939 10.4434 7.61779 10.3489 7.70817L4.20356 13.8536C4.0083 14.0488 3.69171 14.0488 3.49645 13.8536C3.30119 13.6583 3.30119 13.3417 3.49645 13.1464L9.6429 7L3.49645 0.853553C3.30119 0.658291 3.30119 0.341709 3.49645 0.146447Z" fill="#000001"/>
</g>
<defs>
<clipPath id="clip0_450_19268">
<rect width="14" height="14" fill="white"/>
</clipPath>
</defs>
</svg>
