<svg width="14" height="14" viewBox="0 0 14 14" fill="none" xmlns="http://www.w3.org/2000/svg">
<g clip-path="url(#clip0_440_19251)">
<path fill-rule="evenodd" clip-rule="evenodd" d="M1.5 1C1.36739 1 1.24021 1.05268 1.14645 1.14645C1.05268 1.24021 1 1.36739 1 1.5V12.5C1 12.6326 1.05268 12.7598 1.14645 12.8536C1.24022 12.9473 1.36739 13 1.5 13H8.5C8.63261 13 8.75978 12.9473 8.85355 12.8536C8.94732 12.7598 9 12.6326 9 12.5V10.5C9 10.2239 9.22386 10 9.5 10C9.77614 10 10 10.2239 10 10.5V12.5C10 12.8978 9.84196 13.2794 9.56066 13.5607C9.27936 13.842 8.89783 14 8.5 14H1.5C1.10217 14 0.720644 13.842 0.43934 13.5607C0.158035 13.2794 0 12.8978 0 12.5V1.5C0 1.10218 0.158035 0.720644 0.43934 0.43934C0.720644 0.158035 1.10218 0 1.5 0H8.5C8.89783 0 9.27936 0.158035 9.56066 0.43934C9.84196 0.720644 10 1.10217 10 1.5V3.5C10 3.77614 9.77614 4 9.5 4C9.22386 4 9 3.77614 9 3.5V1.5C9 1.36739 8.94732 1.24022 8.85355 1.14645C8.75978 1.05268 8.63261 1 8.5 1H1.5Z" fill="#000001"/>
<path fill-rule="evenodd" clip-rule="evenodd" d="M6 7C6 6.72386 6.22386 6.5 6.5 6.5H13.5C13.7761 6.5 14 6.72386 14 7C14 7.27614 13.7761 7.5 13.5 7.5H6.5C6.22386 7.5 6 7.27614 6 7Z" fill="#000001"/>
<path fill-rule="evenodd" clip-rule="evenodd" d="M11.1464 4.64645C11.3417 4.45118 11.6583 4.45118 11.8536 4.64645L13.8536 6.64645C14.0488 6.84171 14.0488 7.15829 13.8536 7.35355L11.8536 9.35355C11.6583 9.54882 11.3417 9.54882 11.1464 9.35355C10.9512 9.15829 10.9512 8.84171 11.1464 8.64645L12.7929 7L11.1464 5.35355C10.9512 5.15829 10.9512 4.84171 11.1464 4.64645Z" fill="#000001"/>
</g>
<defs>
<clipPath id="clip0_440_19251">
<rect width="14" height="14" fill="white"/>
</clipPath>
</defs>
</svg>
