<svg width="14" height="14" viewBox="0 0 14 14" fill="none" xmlns="http://www.w3.org/2000/svg">
<g clip-path="url(#clip0_438_19211)">
<path fill-rule="evenodd" clip-rule="evenodd" d="M1.5 1C1.22386 1 1 1.22386 1 1.5V12.5C1 12.7761 1.22386 13 1.5 13H12.5C12.7761 13 13 12.7761 13 12.5V1.5C13 1.22386 12.7761 1 12.5 1H1.5ZM0 1.5C0 0.671573 0.671573 0 1.5 0H12.5C13.3284 0 14 0.671573 14 1.5V12.5C14 13.3284 13.3284 14 12.5 14H1.5C0.671573 14 0 13.3284 0 12.5V1.5Z" fill="#2A3F54"/>
<path fill-rule="evenodd" clip-rule="evenodd" d="M5 0.5C5.27614 0.5 5.5 0.723858 5.5 1L5.5 14C5.5 14.2761 5.27614 14.5 5 14.5C4.72386 14.5 4.5 14.2761 4.5 14L4.5 1C4.5 0.723858 4.72386 0.5 5 0.5Z" fill="#2A3F54"/>
<path fill-rule="evenodd" clip-rule="evenodd" d="M3.5 3C3.5 3.27614 3.27614 3.5 3 3.5H1C0.723858 3.5 0.5 3.27614 0.5 3C0.5 2.72386 0.723858 2.5 1 2.5H3C3.27614 2.5 3.5 2.72386 3.5 3Z" fill="#2A3F54"/>
<path fill-rule="evenodd" clip-rule="evenodd" d="M3.5 5C3.5 5.27614 3.27614 5.5 3 5.5L0.999999 5.5C0.723857 5.5 0.499999 5.27614 0.5 5C0.5 4.72386 0.723858 4.5 1 4.5L3 4.5C3.27614 4.5 3.5 4.72386 3.5 5Z" fill="#2A3F54"/>
<path fill-rule="evenodd" clip-rule="evenodd" d="M3.5 7C3.5 7.27614 3.27614 7.5 3 7.5L0.999999 7.5C0.723857 7.5 0.499999 7.27614 0.5 7C0.5 6.72386 0.723858 6.5 1 6.5L3 6.5C3.27614 6.5 3.5 6.72386 3.5 7Z" fill="#2A3F54"/>
</g>
<defs>
<clipPath id="clip0_438_19211">
<rect width="14" height="14" fill="white"/>
</clipPath>
</defs>
</svg>
